<mxfile host="app.diagrams.net" agent="Mozilla/5.0 (Windows NT 10.0; Win64; x64) AppleWebKit/537.36 (KHTML, like Gecko) Chrome/128.0.0.0 Safari/537.36 OPR/114.0.0.0" version="24.7.17">
  <diagram id="C5RBs43oDa-KdzZeNtuy" name="Page-1">
    <mxGraphModel dx="4277" dy="4273" grid="1" gridSize="10" guides="1" tooltips="1" connect="1" arrows="1" fold="1" page="1" pageScale="1" pageWidth="827" pageHeight="1169" math="0" shadow="0">
      <root>
        <mxCell id="WIyWlLk6GJQsqaUBKTNV-0" />
        <mxCell id="WIyWlLk6GJQsqaUBKTNV-1" parent="WIyWlLk6GJQsqaUBKTNV-0" />
        <mxCell id="4f0hrx8F149E0mvcmFn5-81" value="" style="rounded=0;whiteSpace=wrap;html=1;strokeColor=default;align=center;verticalAlign=middle;fontFamily=Helvetica;fontSize=12;fontColor=default;fillColor=default;shadow=1;" parent="WIyWlLk6GJQsqaUBKTNV-1" vertex="1">
          <mxGeometry x="-640" y="-2110" width="3180" height="1680" as="geometry" />
        </mxCell>
        <mxCell id="4f0hrx8F149E0mvcmFn5-166" value="" style="rounded=0;whiteSpace=wrap;html=1;strokeColor=default;align=center;verticalAlign=middle;fontFamily=Helvetica;fontSize=12;fontColor=default;fillColor=default;strokeWidth=0;dashed=1;dashPattern=12 12;" parent="WIyWlLk6GJQsqaUBKTNV-1" vertex="1">
          <mxGeometry x="-470" y="-1870" width="2090" height="1250" as="geometry" />
        </mxCell>
        <mxCell id="4f0hrx8F149E0mvcmFn5-14" value="" style="html=1;overflow=block;blockSpacing=1;whiteSpace=wrap;container=1;pointerEvents=0;collapsible=0;recursiveResize=0;fontSize=13;align=center;spacing=0;strokeColor=#unset;fillOpacity=0;rounded=1;absoluteArcSize=1;arcSize=12;fillColor=#000000;dashed=1;fixDash=1;strokeWidth=NaN;lucidId=iVNfC4j17jmI;shadow=1;" parent="WIyWlLk6GJQsqaUBKTNV-1" vertex="1">
          <mxGeometry x="-360" y="-1020" width="2440" height="1155" as="geometry" />
        </mxCell>
        <mxCell id="4f0hrx8F149E0mvcmFn5-4" value="" style="html=1;overflow=block;blockSpacing=1;whiteSpace=wrap;rounded=1;absoluteArcSize=1;arcSize=24;container=1;pointerEvents=0;collapsible=0;recursiveResize=0;fontSize=13;align=center;spacing=0;strokeColor=#unset;fillOpacity=0;fillColor=#000000;dashed=1;fixDash=1;strokeWidth=NaN;lucidId=8EigGYfw1h6j;shadow=1;" parent="WIyWlLk6GJQsqaUBKTNV-1" vertex="1">
          <mxGeometry x="953" y="-1750" width="255" height="165" as="geometry" />
        </mxCell>
        <mxCell id="4f0hrx8F149E0mvcmFn5-5" value="" style="html=1;overflow=block;blockSpacing=1;whiteSpace=wrap;rounded=1;absoluteArcSize=1;arcSize=24;container=1;pointerEvents=0;collapsible=0;recursiveResize=0;fontSize=13;align=center;spacing=0;strokeColor=#unset;fillOpacity=0;fillColor=#000000;dashed=1;fixDash=1;strokeWidth=NaN;lucidId=mLigjh89MyzV;shadow=1;" parent="WIyWlLk6GJQsqaUBKTNV-1" vertex="1">
          <mxGeometry x="953" y="-1515" width="255" height="165" as="geometry" />
        </mxCell>
        <mxCell id="4f0hrx8F149E0mvcmFn5-6" value="" style="html=1;overflow=block;blockSpacing=1;whiteSpace=wrap;rounded=1;absoluteArcSize=1;arcSize=24;container=1;pointerEvents=0;collapsible=0;recursiveResize=0;fontSize=13;align=center;spacing=0;strokeColor=#unset;fillOpacity=0;fillColor=#000000;dashed=1;fixDash=1;strokeWidth=NaN;lucidId=vLigM.W0kLLF;shadow=1;" parent="WIyWlLk6GJQsqaUBKTNV-1" vertex="1">
          <mxGeometry x="953" y="-1227" width="255" height="165" as="geometry" />
        </mxCell>
        <mxCell id="4f0hrx8F149E0mvcmFn5-7" value="" style="html=1;overflow=block;blockSpacing=1;whiteSpace=wrap;rounded=1;absoluteArcSize=1;arcSize=24;container=1;pointerEvents=0;collapsible=0;recursiveResize=0;fontSize=13;align=center;spacing=0;strokeColor=#unset;fillOpacity=0;fillColor=#000000;dashed=1;fixDash=1;strokeWidth=NaN;lucidId=ELigAyEY31j_;shadow=1;" parent="WIyWlLk6GJQsqaUBKTNV-1" vertex="1">
          <mxGeometry x="953" y="-985" width="255" height="165" as="geometry" />
        </mxCell>
        <mxCell id="4f0hrx8F149E0mvcmFn5-15" value="" style="html=1;overflow=block;blockSpacing=1;whiteSpace=wrap;container=1;pointerEvents=0;collapsible=0;recursiveResize=0;fontSize=13;align=center;spacing=0;strokeColor=#unset;fillOpacity=0;rounded=1;absoluteArcSize=1;arcSize=12;fillColor=#000000;dashed=1;fixDash=1;strokeWidth=NaN;lucidId=O-NfsrT4cIA9;shadow=1;" parent="WIyWlLk6GJQsqaUBKTNV-1" vertex="1">
          <mxGeometry x="120" y="-1870" width="2800" height="1470" as="geometry" />
        </mxCell>
        <mxCell id="Ze3hFqJc916vnHmV0CuT-1" value="&lt;div&gt;&lt;font style=&quot;font-size: 24px;&quot;&gt;SQL SERVER&lt;/font&gt;&lt;/div&gt;&lt;div&gt;&lt;font style=&quot;font-size: 24px;&quot;&gt;&lt;br&gt;&lt;/font&gt;&lt;/div&gt;&lt;div&gt;&lt;font style=&quot;font-size: 24px;&quot;&gt;&lt;br&gt;&lt;/font&gt;&lt;/div&gt;&lt;div&gt;&lt;span style=&quot;font-size: 20px;&quot;&gt;&lt;br&gt;&lt;/span&gt;&lt;/div&gt;" style="rounded=1;whiteSpace=wrap;html=1;shadow=1;dashed=1;dashPattern=12 12;" vertex="1" parent="4f0hrx8F149E0mvcmFn5-15">
          <mxGeometry x="800" y="180" width="250" height="146" as="geometry" />
        </mxCell>
        <mxCell id="4f0hrx8F149E0mvcmFn5-158" style="edgeStyle=orthogonalEdgeStyle;rounded=0;orthogonalLoop=1;jettySize=auto;html=1;entryX=0;entryY=0.5;entryDx=0;entryDy=0;fontFamily=Helvetica;fontSize=12;fontColor=default;" parent="4f0hrx8F149E0mvcmFn5-15" source="4f0hrx8F149E0mvcmFn5-78" target="4f0hrx8F149E0mvcmFn5-22" edge="1">
          <mxGeometry relative="1" as="geometry" />
        </mxCell>
        <mxCell id="4f0hrx8F149E0mvcmFn5-78" value="&lt;font style=&quot;font-size: 24px;&quot;&gt;Product Service&lt;/font&gt;&lt;div&gt;&lt;font size=&quot;3&quot;&gt;&lt;br&gt;&lt;/font&gt;&lt;/div&gt;&lt;div&gt;&lt;font size=&quot;3&quot;&gt;&lt;br&gt;&lt;/font&gt;&lt;/div&gt;&lt;div&gt;&lt;font size=&quot;3&quot;&gt;&lt;br&gt;&lt;/font&gt;&lt;/div&gt;&lt;div&gt;&lt;br&gt;&lt;/div&gt;" style="rounded=1;whiteSpace=wrap;html=1;shadow=1;dashed=1;dashPattern=12 12;" parent="4f0hrx8F149E0mvcmFn5-15" vertex="1">
          <mxGeometry x="210" y="650" width="220" height="120" as="geometry" />
        </mxCell>
        <mxCell id="4f0hrx8F149E0mvcmFn5-71" value="&lt;font style=&quot;font-size: 24px;&quot;&gt;Service Bus&lt;/font&gt;" style="swimlane;whiteSpace=wrap;html=1;startSize=70;shadow=1;dashed=1;dashPattern=12 12;" parent="4f0hrx8F149E0mvcmFn5-15" vertex="1">
          <mxGeometry x="1170" y="110" width="250" height="520" as="geometry" />
        </mxCell>
        <mxCell id="4f0hrx8F149E0mvcmFn5-83" value="&lt;font style=&quot;font-size: 24px;&quot;&gt;Queue&lt;/font&gt;&lt;div&gt;&lt;font size=&quot;3&quot;&gt;&lt;br&gt;&lt;/font&gt;&lt;/div&gt;&lt;div&gt;&lt;br&gt;&lt;/div&gt;&lt;div&gt;&lt;br&gt;&lt;/div&gt;&lt;div&gt;&lt;br&gt;&lt;/div&gt;" style="rounded=0;whiteSpace=wrap;html=1;strokeColor=#82b366;align=center;verticalAlign=middle;fontFamily=Helvetica;fontSize=12;fillColor=#d5e8d4;shadow=1;" parent="4f0hrx8F149E0mvcmFn5-71" vertex="1">
          <mxGeometry x="20" y="360" width="210" height="140" as="geometry" />
        </mxCell>
        <mxCell id="4f0hrx8F149E0mvcmFn5-58" value="&lt;font style=&quot;font-size: 24px;&quot;&gt;Registration&lt;/font&gt;" style="html=1;overflow=block;blockSpacing=1;whiteSpace=wrap;fontSize=20;fontColor=#3a414a;align=center;spacing=0;strokeColor=#3a414a;strokeOpacity=100;fillOpacity=100;rounded=1;absoluteArcSize=1;arcSize=12;fillColor=#ffffff;strokeWidth=0.8;lucidId=VMwhJ_9NbEB5;shadow=1;" parent="4f0hrx8F149E0mvcmFn5-71" vertex="1">
          <mxGeometry x="35" y="435" width="180" height="45" as="geometry" />
        </mxCell>
        <mxCell id="4f0hrx8F149E0mvcmFn5-97" value="&lt;div&gt;&lt;span style=&quot;font-size: 24px;&quot;&gt;Topic&lt;/span&gt;&lt;/div&gt;&lt;div&gt;&lt;span style=&quot;font-size: 24px;&quot;&gt;&lt;br&gt;&lt;/span&gt;&lt;/div&gt;&lt;div&gt;&lt;span style=&quot;font-size: 24px;&quot;&gt;&lt;br&gt;&lt;/span&gt;&lt;/div&gt;&lt;div&gt;&lt;span style=&quot;font-size: 24px;&quot;&gt;&lt;br&gt;&lt;/span&gt;&lt;/div&gt;&lt;div&gt;&lt;span style=&quot;font-size: 24px;&quot;&gt;&lt;br&gt;&lt;/span&gt;&lt;/div&gt;&lt;div&gt;&lt;span style=&quot;font-size: 24px;&quot;&gt;&lt;br&gt;&lt;/span&gt;&lt;/div&gt;" style="rounded=0;whiteSpace=wrap;html=1;strokeColor=#6c8ebf;align=center;verticalAlign=middle;fontFamily=Helvetica;fontSize=12;fillColor=#dae8fc;shadow=1;" parent="4f0hrx8F149E0mvcmFn5-71" vertex="1">
          <mxGeometry x="20" y="90" width="210" height="220" as="geometry" />
        </mxCell>
        <mxCell id="4f0hrx8F149E0mvcmFn5-99" value="&lt;font style=&quot;font-size: 24px;&quot;&gt;Order&lt;/font&gt;" style="html=1;overflow=block;blockSpacing=1;whiteSpace=wrap;fontSize=20;fontColor=#3a414a;align=center;spacing=0;strokeColor=#3a414a;strokeOpacity=100;fillOpacity=100;rounded=1;absoluteArcSize=1;arcSize=12;fillColor=#ffffff;strokeWidth=0.8;lucidId=VMwhJ_9NbEB5;shadow=1;" parent="4f0hrx8F149E0mvcmFn5-71" vertex="1">
          <mxGeometry x="35" y="170" width="180" height="45" as="geometry" />
        </mxCell>
        <mxCell id="4f0hrx8F149E0mvcmFn5-169" value="" style="edgeStyle=orthogonalEdgeStyle;rounded=0;orthogonalLoop=1;jettySize=auto;html=1;fontFamily=Helvetica;fontSize=12;fontColor=default;" parent="4f0hrx8F149E0mvcmFn5-71" source="4f0hrx8F149E0mvcmFn5-98" target="4f0hrx8F149E0mvcmFn5-83" edge="1">
          <mxGeometry relative="1" as="geometry" />
        </mxCell>
        <mxCell id="4f0hrx8F149E0mvcmFn5-98" value="" style="html=1;overflow=block;blockSpacing=1;whiteSpace=wrap;fontSize=20;fontColor=#3a414a;align=center;spacing=0;strokeColor=#3a414a;strokeOpacity=100;fillOpacity=100;rounded=1;absoluteArcSize=1;arcSize=12;fillColor=#ffffff;strokeWidth=0.8;lucidId=VMwhJ_9NbEB5;shadow=1;" parent="4f0hrx8F149E0mvcmFn5-71" vertex="1">
          <mxGeometry x="35" y="240" width="180" height="45" as="geometry" />
        </mxCell>
        <mxCell id="Ze3hFqJc916vnHmV0CuT-8" style="edgeStyle=orthogonalEdgeStyle;rounded=0;orthogonalLoop=1;jettySize=auto;html=1;entryX=0;entryY=0.5;entryDx=0;entryDy=0;" edge="1" parent="4f0hrx8F149E0mvcmFn5-15" source="4f0hrx8F149E0mvcmFn5-74" target="Ze3hFqJc916vnHmV0CuT-1">
          <mxGeometry relative="1" as="geometry" />
        </mxCell>
        <mxCell id="4f0hrx8F149E0mvcmFn5-74" value="&lt;font style=&quot;font-size: 24px;&quot;&gt;Read&lt;/font&gt;" style="rounded=1;whiteSpace=wrap;html=1;shadow=1;fillColor=#dae8fc;strokeColor=#6c8ebf;" parent="4f0hrx8F149E0mvcmFn5-15" vertex="1">
          <mxGeometry x="580" y="150" width="120" height="60" as="geometry" />
        </mxCell>
        <mxCell id="4f0hrx8F149E0mvcmFn5-47" value="" style="html=1;overflow=block;blockSpacing=1;whiteSpace=wrap;shape=image;fontSize=13;spacing=0;strokeColor=none;strokeOpacity=100;rounded=1;absoluteArcSize=1;arcSize=12;strokeWidth=0;image=https://images.lucid.app/images/6f351608-7eb1-4cb7-90ca-fe1805a0f4fb/content;imageAspect=0;lucidId=lCigPQBSibLu;shadow=0;" parent="4f0hrx8F149E0mvcmFn5-15" vertex="1">
          <mxGeometry x="275" y="709.5" width="90" height="51" as="geometry" />
        </mxCell>
        <mxCell id="4f0hrx8F149E0mvcmFn5-161" style="edgeStyle=orthogonalEdgeStyle;rounded=0;orthogonalLoop=1;jettySize=auto;html=1;entryX=0;entryY=0.5;entryDx=0;entryDy=0;fontFamily=Helvetica;fontSize=12;fontColor=default;" parent="4f0hrx8F149E0mvcmFn5-15" source="4f0hrx8F149E0mvcmFn5-88" edge="1">
          <mxGeometry relative="1" as="geometry">
            <mxPoint x="800" y="939" as="targetPoint" />
          </mxGeometry>
        </mxCell>
        <mxCell id="4f0hrx8F149E0mvcmFn5-88" value="&lt;div&gt;&lt;font style=&quot;font-size: 24px;&quot;&gt;&lt;span style=&quot;color: rgb(58, 65, 74);&quot;&gt;Authentication Service&lt;/span&gt;&lt;br&gt;&lt;/font&gt;&lt;/div&gt;&lt;div&gt;&lt;font size=&quot;3&quot;&gt;&lt;br&gt;&lt;/font&gt;&lt;/div&gt;&lt;div&gt;&lt;font size=&quot;3&quot;&gt;&lt;br&gt;&lt;/font&gt;&lt;/div&gt;&lt;div&gt;&lt;font size=&quot;3&quot;&gt;&lt;br&gt;&lt;/font&gt;&lt;/div&gt;&lt;div&gt;&lt;br&gt;&lt;/div&gt;" style="rounded=1;whiteSpace=wrap;html=1;shadow=1;dashed=1;dashPattern=12 12;" parent="4f0hrx8F149E0mvcmFn5-15" vertex="1">
          <mxGeometry x="210" y="860" width="230" height="158" as="geometry" />
        </mxCell>
        <mxCell id="4f0hrx8F149E0mvcmFn5-89" value="" style="html=1;overflow=block;blockSpacing=1;whiteSpace=wrap;shape=image;fontSize=13;spacing=0;strokeColor=none;strokeOpacity=100;rounded=1;absoluteArcSize=1;arcSize=12;strokeWidth=0;image=https://images.lucid.app/images/6f351608-7eb1-4cb7-90ca-fe1805a0f4fb/content;imageAspect=0;lucidId=lCigPQBSibLu;shadow=0;" parent="4f0hrx8F149E0mvcmFn5-15" vertex="1">
          <mxGeometry x="280" y="951" width="90" height="51" as="geometry" />
        </mxCell>
        <mxCell id="4f0hrx8F149E0mvcmFn5-164" style="edgeStyle=orthogonalEdgeStyle;rounded=0;orthogonalLoop=1;jettySize=auto;html=1;entryX=0;entryY=0.5;entryDx=0;entryDy=0;fontFamily=Helvetica;fontSize=12;fontColor=default;" parent="4f0hrx8F149E0mvcmFn5-15" source="4f0hrx8F149E0mvcmFn5-91" edge="1">
          <mxGeometry relative="1" as="geometry">
            <mxPoint x="800" y="470" as="targetPoint" />
          </mxGeometry>
        </mxCell>
        <mxCell id="Ze3hFqJc916vnHmV0CuT-15" style="edgeStyle=orthogonalEdgeStyle;rounded=0;orthogonalLoop=1;jettySize=auto;html=1;entryX=0.5;entryY=0;entryDx=0;entryDy=0;" edge="1" parent="4f0hrx8F149E0mvcmFn5-15" source="4f0hrx8F149E0mvcmFn5-91" target="4f0hrx8F149E0mvcmFn5-78">
          <mxGeometry relative="1" as="geometry" />
        </mxCell>
        <mxCell id="4f0hrx8F149E0mvcmFn5-91" value="&lt;div&gt;&lt;font style=&quot;font-size: 24px;&quot;&gt;Cart Service&lt;br&gt;&lt;/font&gt;&lt;/div&gt;&lt;div&gt;&lt;font size=&quot;3&quot;&gt;&lt;br&gt;&lt;/font&gt;&lt;/div&gt;&lt;div&gt;&lt;font size=&quot;3&quot;&gt;&lt;br&gt;&lt;/font&gt;&lt;/div&gt;&lt;div&gt;&lt;span style=&quot;font-size: 20px;&quot;&gt;&lt;br&gt;&lt;/span&gt;&lt;/div&gt;" style="rounded=1;whiteSpace=wrap;html=1;shadow=1;dashed=1;dashPattern=12 12;" parent="4f0hrx8F149E0mvcmFn5-15" vertex="1">
          <mxGeometry x="210" y="410" width="220" height="120" as="geometry" />
        </mxCell>
        <mxCell id="4f0hrx8F149E0mvcmFn5-92" value="" style="html=1;overflow=block;blockSpacing=1;whiteSpace=wrap;shape=image;fontSize=13;spacing=0;strokeColor=none;strokeOpacity=100;rounded=1;absoluteArcSize=1;arcSize=12;strokeWidth=0;image=https://images.lucid.app/images/6f351608-7eb1-4cb7-90ca-fe1805a0f4fb/content;imageAspect=0;lucidId=lCigPQBSibLu;shadow=0;" parent="4f0hrx8F149E0mvcmFn5-15" vertex="1">
          <mxGeometry x="275" y="470" width="90" height="51" as="geometry" />
        </mxCell>
        <mxCell id="4f0hrx8F149E0mvcmFn5-151" style="edgeStyle=orthogonalEdgeStyle;rounded=0;orthogonalLoop=1;jettySize=auto;html=1;entryX=0;entryY=0.5;entryDx=0;entryDy=0;fontFamily=Helvetica;fontSize=12;fontColor=default;" parent="4f0hrx8F149E0mvcmFn5-15" source="4f0hrx8F149E0mvcmFn5-93" target="4f0hrx8F149E0mvcmFn5-74" edge="1">
          <mxGeometry relative="1" as="geometry" />
        </mxCell>
        <mxCell id="4f0hrx8F149E0mvcmFn5-152" style="edgeStyle=orthogonalEdgeStyle;rounded=0;orthogonalLoop=1;jettySize=auto;html=1;fontFamily=Helvetica;fontSize=12;fontColor=default;" parent="4f0hrx8F149E0mvcmFn5-15" source="4f0hrx8F149E0mvcmFn5-93" target="4f0hrx8F149E0mvcmFn5-103" edge="1">
          <mxGeometry relative="1" as="geometry" />
        </mxCell>
        <mxCell id="Ze3hFqJc916vnHmV0CuT-16" style="edgeStyle=orthogonalEdgeStyle;rounded=0;orthogonalLoop=1;jettySize=auto;html=1;entryX=1;entryY=0.25;entryDx=0;entryDy=0;" edge="1" parent="4f0hrx8F149E0mvcmFn5-15" source="4f0hrx8F149E0mvcmFn5-93" target="4f0hrx8F149E0mvcmFn5-78">
          <mxGeometry relative="1" as="geometry">
            <Array as="points">
              <mxPoint x="450" y="240" />
              <mxPoint x="450" y="680" />
            </Array>
          </mxGeometry>
        </mxCell>
        <mxCell id="4f0hrx8F149E0mvcmFn5-93" value="&lt;div&gt;&lt;font style=&quot;font-size: 24px;&quot;&gt;Order Service&lt;br&gt;&lt;/font&gt;&lt;/div&gt;&lt;div&gt;&lt;font size=&quot;3&quot;&gt;&lt;br&gt;&lt;/font&gt;&lt;/div&gt;&lt;div&gt;&lt;font size=&quot;3&quot;&gt;&lt;br&gt;&lt;/font&gt;&lt;/div&gt;&lt;div&gt;&lt;span style=&quot;font-size: 20px;&quot;&gt;&lt;br&gt;&lt;/span&gt;&lt;/div&gt;" style="rounded=1;whiteSpace=wrap;html=1;shadow=1;dashed=1;dashPattern=12 12;" parent="4f0hrx8F149E0mvcmFn5-15" vertex="1">
          <mxGeometry x="210" y="180" width="220" height="120" as="geometry" />
        </mxCell>
        <mxCell id="4f0hrx8F149E0mvcmFn5-94" value="" style="html=1;overflow=block;blockSpacing=1;whiteSpace=wrap;shape=image;fontSize=13;spacing=0;strokeColor=none;strokeOpacity=100;rounded=1;absoluteArcSize=1;arcSize=12;strokeWidth=0;image=https://images.lucid.app/images/6f351608-7eb1-4cb7-90ca-fe1805a0f4fb/content;imageAspect=0;lucidId=lCigPQBSibLu;shadow=0;" parent="4f0hrx8F149E0mvcmFn5-15" vertex="1">
          <mxGeometry x="275" y="235" width="90" height="51" as="geometry" />
        </mxCell>
        <mxCell id="4f0hrx8F149E0mvcmFn5-30" value="" style="html=1;overflow=block;blockSpacing=1;whiteSpace=wrap;shape=image;fontSize=13;spacing=0;strokeColor=none;strokeOpacity=100;rounded=1;absoluteArcSize=1;arcSize=12;strokeWidth=0;image=https://images.lucid.app/images/273ff4b5-f56a-48d5-a145-8e1a4cded7ac/content;imageAspect=0;lucidId=sXNfnZCKuJgc;shadow=0;" parent="4f0hrx8F149E0mvcmFn5-15" vertex="1">
          <mxGeometry x="1945" y="370" width="180" height="160" as="geometry" />
        </mxCell>
        <mxCell id="4f0hrx8F149E0mvcmFn5-101" style="edgeStyle=orthogonalEdgeStyle;rounded=0;orthogonalLoop=1;jettySize=auto;html=1;exitX=1;exitY=1;exitDx=0;exitDy=0;entryX=0.976;entryY=1;entryDx=0;entryDy=0;entryPerimeter=0;fontFamily=Helvetica;fontSize=12;fontColor=default;" parent="4f0hrx8F149E0mvcmFn5-15" source="4f0hrx8F149E0mvcmFn5-30" target="4f0hrx8F149E0mvcmFn5-30" edge="1">
          <mxGeometry relative="1" as="geometry" />
        </mxCell>
        <mxCell id="4f0hrx8F149E0mvcmFn5-34" value="" style="html=1;overflow=block;blockSpacing=1;whiteSpace=wrap;shape=image;fontSize=13;spacing=0;strokeColor=none;strokeOpacity=100;rounded=1;absoluteArcSize=1;arcSize=12;strokeWidth=0;image=https://images.lucid.app/images/6db9ac1a-21c4-4acc-9877-d0f41014523a/content;imageAspect=0;lucidId=Y~NfIWSCJFXi;shadow=0;" parent="4f0hrx8F149E0mvcmFn5-15" vertex="1">
          <mxGeometry x="1910" y="701" width="250" height="250" as="geometry" />
        </mxCell>
        <mxCell id="Ze3hFqJc916vnHmV0CuT-9" style="edgeStyle=orthogonalEdgeStyle;rounded=0;orthogonalLoop=1;jettySize=auto;html=1;entryX=0;entryY=0.5;entryDx=0;entryDy=0;" edge="1" parent="4f0hrx8F149E0mvcmFn5-15" source="4f0hrx8F149E0mvcmFn5-103" target="Ze3hFqJc916vnHmV0CuT-1">
          <mxGeometry relative="1" as="geometry" />
        </mxCell>
        <mxCell id="4f0hrx8F149E0mvcmFn5-103" value="&lt;font style=&quot;font-size: 24px;&quot;&gt;Write&lt;/font&gt;" style="rounded=1;whiteSpace=wrap;html=1;shadow=1;fillColor=#d5e8d4;strokeColor=#82b366;" parent="4f0hrx8F149E0mvcmFn5-15" vertex="1">
          <mxGeometry x="580" y="291" width="120" height="60" as="geometry" />
        </mxCell>
        <mxCell id="4f0hrx8F149E0mvcmFn5-118" value="&lt;span style=&quot;font-size: 24px;&quot;&gt;Optional&lt;/span&gt;" style="text;html=1;align=center;verticalAlign=middle;whiteSpace=wrap;rounded=0;fontFamily=Helvetica;fontSize=12;fontColor=default;" parent="4f0hrx8F149E0mvcmFn5-15" vertex="1">
          <mxGeometry x="1780" y="410" width="60" height="30" as="geometry" />
        </mxCell>
        <mxCell id="4f0hrx8F149E0mvcmFn5-145" value="&lt;span style=&quot;font-size: 24px;&quot;&gt;Optional&lt;/span&gt;" style="text;html=1;align=center;verticalAlign=middle;whiteSpace=wrap;rounded=0;fontFamily=Helvetica;fontSize=12;fontColor=default;" parent="4f0hrx8F149E0mvcmFn5-15" vertex="1">
          <mxGeometry x="1780" y="140" width="60" height="30" as="geometry" />
        </mxCell>
        <mxCell id="4f0hrx8F149E0mvcmFn5-22" value="" style="html=1;overflow=block;blockSpacing=1;whiteSpace=wrap;shape=image;fontSize=13;spacing=0;strokeColor=none;strokeOpacity=100;rounded=1;absoluteArcSize=1;arcSize=12;strokeWidth=0;image=https://images.lucid.app/images/f30c2389-5279-47ae-8870-4f0051834ef5/content;imageAspect=0;lucidId=nKNfAHqvBl6X;shadow=0;" parent="4f0hrx8F149E0mvcmFn5-15" vertex="1">
          <mxGeometry x="597" y="667" width="86" height="86" as="geometry" />
        </mxCell>
        <mxCell id="4f0hrx8F149E0mvcmFn5-159" style="edgeStyle=orthogonalEdgeStyle;rounded=0;orthogonalLoop=1;jettySize=auto;html=1;entryX=0.004;entryY=0.539;entryDx=0;entryDy=0;entryPerimeter=0;fontFamily=Helvetica;fontSize=12;fontColor=default;" parent="4f0hrx8F149E0mvcmFn5-15" source="4f0hrx8F149E0mvcmFn5-22" edge="1">
          <mxGeometry relative="1" as="geometry">
            <mxPoint x="800.6360000000004" y="710.5880000000002" as="targetPoint" />
          </mxGeometry>
        </mxCell>
        <mxCell id="4f0hrx8F149E0mvcmFn5-24" value="" style="html=1;overflow=block;blockSpacing=1;whiteSpace=wrap;shape=image;fontSize=13;spacing=0;strokeColor=none;strokeOpacity=100;rounded=1;absoluteArcSize=1;arcSize=12;strokeWidth=0;image=https://images.lucid.app/images/913cbac1-fbca-441e-8293-56ef1d8492e2/content;imageAspect=0;lucidId=xNNfi3xZABGv;shadow=0;" parent="4f0hrx8F149E0mvcmFn5-15" vertex="1">
          <mxGeometry x="845.5" y="234" width="159" height="92" as="geometry" />
        </mxCell>
        <mxCell id="4f0hrx8F149E0mvcmFn5-16" value="" style="html=1;overflow=block;blockSpacing=1;whiteSpace=wrap;container=1;pointerEvents=0;collapsible=0;recursiveResize=0;fontSize=13;align=center;spacing=0;strokeColor=#unset;fillOpacity=0;rounded=1;absoluteArcSize=1;arcSize=12;fillColor=#000000;dashed=1;fixDash=1;strokeWidth=NaN;lucidId=~iOfDZs6vdFp;shadow=1;" parent="WIyWlLk6GJQsqaUBKTNV-1" vertex="1">
          <mxGeometry x="-105" y="-1212" width="320" height="139" as="geometry" />
        </mxCell>
        <mxCell id="4f0hrx8F149E0mvcmFn5-110" style="edgeStyle=orthogonalEdgeStyle;rounded=0;orthogonalLoop=1;jettySize=auto;html=1;entryX=0;entryY=0.5;entryDx=0;entryDy=0;fontFamily=Helvetica;fontSize=12;fontColor=default;" parent="WIyWlLk6GJQsqaUBKTNV-1" source="4f0hrx8F149E0mvcmFn5-23" target="4f0hrx8F149E0mvcmFn5-30" edge="1">
          <mxGeometry relative="1" as="geometry">
            <Array as="points">
              <mxPoint x="1880" y="-1262" />
              <mxPoint x="1880" y="-1420" />
            </Array>
          </mxGeometry>
        </mxCell>
        <mxCell id="4f0hrx8F149E0mvcmFn5-112" style="edgeStyle=orthogonalEdgeStyle;rounded=0;orthogonalLoop=1;jettySize=auto;html=1;entryX=0;entryY=0.5;entryDx=0;entryDy=0;fontFamily=Helvetica;fontSize=12;fontColor=default;" parent="WIyWlLk6GJQsqaUBKTNV-1" source="4f0hrx8F149E0mvcmFn5-23" target="4f0hrx8F149E0mvcmFn5-34" edge="1">
          <mxGeometry relative="1" as="geometry">
            <Array as="points">
              <mxPoint x="1880" y="-1262" />
              <mxPoint x="1880" y="-1045" />
            </Array>
          </mxGeometry>
        </mxCell>
        <mxCell id="4f0hrx8F149E0mvcmFn5-116" style="edgeStyle=orthogonalEdgeStyle;rounded=0;orthogonalLoop=1;jettySize=auto;html=1;entryX=0;entryY=0.5;entryDx=0;entryDy=0;fontFamily=Helvetica;fontSize=12;fontColor=default;" parent="WIyWlLk6GJQsqaUBKTNV-1" source="4f0hrx8F149E0mvcmFn5-23" edge="1">
          <mxGeometry relative="1" as="geometry">
            <Array as="points">
              <mxPoint x="1880" y="-1262" />
              <mxPoint x="1880" y="-1683" />
            </Array>
            <mxPoint x="2065" y="-1682.75" as="targetPoint" />
          </mxGeometry>
        </mxCell>
        <mxCell id="4f0hrx8F149E0mvcmFn5-23" value="" style="html=1;overflow=block;blockSpacing=1;whiteSpace=wrap;shape=image;fontSize=13;spacing=0;strokeColor=none;strokeOpacity=100;rounded=1;absoluteArcSize=1;arcSize=12;strokeWidth=0;image=https://images.lucid.app/images/08b31ef8-40c4-4436-b328-af4f82c4b70c/content;imageAspect=0;lucidId=BKNfgbweBYB_;shadow=0;" parent="WIyWlLk6GJQsqaUBKTNV-1" vertex="1">
          <mxGeometry x="1680" y="-1337" width="150" height="150" as="geometry" />
        </mxCell>
        <mxCell id="4f0hrx8F149E0mvcmFn5-33" value="" style="html=1;overflow=block;blockSpacing=1;whiteSpace=wrap;shape=image;fontSize=13;spacing=0;strokeColor=none;strokeOpacity=100;rounded=1;absoluteArcSize=1;arcSize=12;strokeWidth=0;image=https://images.lucid.app/images/bb12d477-dc68-44cd-a18b-bf2ec76602e2/content;imageAspect=0;lucidId=78NfoUMMu~0K;shadow=0;" parent="WIyWlLk6GJQsqaUBKTNV-1" vertex="1">
          <mxGeometry x="-360" y="-1795" width="276" height="156" as="geometry" />
        </mxCell>
        <mxCell id="4f0hrx8F149E0mvcmFn5-100" style="edgeStyle=orthogonalEdgeStyle;rounded=0;orthogonalLoop=1;jettySize=auto;html=1;exitX=0;exitY=0.5;exitDx=0;exitDy=0;entryX=0.5;entryY=0;entryDx=0;entryDy=0;fontFamily=Helvetica;fontSize=12;fontColor=default;" parent="WIyWlLk6GJQsqaUBKTNV-1" source="4f0hrx8F149E0mvcmFn5-42" target="4f0hrx8F149E0mvcmFn5-71" edge="1">
          <mxGeometry relative="1" as="geometry" />
        </mxCell>
        <mxCell id="4f0hrx8F149E0mvcmFn5-42" value="" style="html=1;overflow=block;blockSpacing=1;whiteSpace=wrap;shape=image;fontSize=13;spacing=0;strokeColor=none;strokeOpacity=100;rounded=1;absoluteArcSize=1;arcSize=12;strokeWidth=0;image=https://images.lucid.app/images/cbe1039e-3e59-48ab-a320-be5a14396b2c/content;imageAspect=0;lucidId=0nOfaK0n6ML2;shadow=0;" parent="WIyWlLk6GJQsqaUBKTNV-1" vertex="1">
          <mxGeometry x="1890" y="-2000" width="77" height="77" as="geometry" />
        </mxCell>
        <mxCell id="4f0hrx8F149E0mvcmFn5-104" style="edgeStyle=orthogonalEdgeStyle;rounded=0;orthogonalLoop=1;jettySize=auto;html=1;exitX=1;exitY=0.5;exitDx=0;exitDy=0;entryX=0;entryY=0.5;entryDx=0;entryDy=0;fontFamily=Helvetica;fontSize=12;fontColor=default;" parent="WIyWlLk6GJQsqaUBKTNV-1" source="4f0hrx8F149E0mvcmFn5-86" target="4f0hrx8F149E0mvcmFn5-88" edge="1">
          <mxGeometry relative="1" as="geometry" />
        </mxCell>
        <mxCell id="4f0hrx8F149E0mvcmFn5-105" style="edgeStyle=orthogonalEdgeStyle;rounded=0;orthogonalLoop=1;jettySize=auto;html=1;entryX=0;entryY=0.5;entryDx=0;entryDy=0;fontFamily=Helvetica;fontSize=12;fontColor=default;" parent="WIyWlLk6GJQsqaUBKTNV-1" source="4f0hrx8F149E0mvcmFn5-86" target="4f0hrx8F149E0mvcmFn5-78" edge="1">
          <mxGeometry relative="1" as="geometry" />
        </mxCell>
        <mxCell id="4f0hrx8F149E0mvcmFn5-106" style="edgeStyle=orthogonalEdgeStyle;rounded=0;orthogonalLoop=1;jettySize=auto;html=1;entryX=0;entryY=0.5;entryDx=0;entryDy=0;fontFamily=Helvetica;fontSize=12;fontColor=default;" parent="WIyWlLk6GJQsqaUBKTNV-1" source="4f0hrx8F149E0mvcmFn5-86" target="4f0hrx8F149E0mvcmFn5-91" edge="1">
          <mxGeometry relative="1" as="geometry" />
        </mxCell>
        <mxCell id="4f0hrx8F149E0mvcmFn5-107" style="edgeStyle=orthogonalEdgeStyle;rounded=0;orthogonalLoop=1;jettySize=auto;html=1;entryX=0;entryY=0.5;entryDx=0;entryDy=0;fontFamily=Helvetica;fontSize=12;fontColor=default;" parent="WIyWlLk6GJQsqaUBKTNV-1" source="4f0hrx8F149E0mvcmFn5-86" target="4f0hrx8F149E0mvcmFn5-93" edge="1">
          <mxGeometry relative="1" as="geometry" />
        </mxCell>
        <mxCell id="4f0hrx8F149E0mvcmFn5-86" value="&lt;div&gt;&lt;span style=&quot;font-size: 20px;&quot;&gt;&lt;span style=&quot;white-space: pre;&quot;&gt;&#x9;&lt;/span&gt;&lt;span style=&quot;white-space: pre;&quot;&gt;&#x9;&lt;/span&gt;API Gateway&lt;/span&gt;&lt;br&gt;&lt;/div&gt;" style="rounded=1;whiteSpace=wrap;html=1;shadow=1;fillColor=#e1d5e7;strokeColor=#9673a6;" parent="WIyWlLk6GJQsqaUBKTNV-1" vertex="1">
          <mxGeometry x="-70" y="-1080" width="249" height="120.5" as="geometry" />
        </mxCell>
        <mxCell id="4f0hrx8F149E0mvcmFn5-36" value="" style="html=1;overflow=block;blockSpacing=1;whiteSpace=wrap;shape=image;fontSize=13;spacing=0;strokeColor=none;strokeOpacity=100;rounded=1;absoluteArcSize=1;arcSize=12;strokeWidth=0;image=https://images.lucid.app/images/ff0c162c-ae0c-44ad-8eed-cf9552ac52c2/content;imageAspect=0;lucidId=3fOfGudcoVXB;shadow=0;" parent="WIyWlLk6GJQsqaUBKTNV-1" vertex="1">
          <mxGeometry x="-50" y="-1056.75" width="69" height="74" as="geometry" />
        </mxCell>
        <mxCell id="4f0hrx8F149E0mvcmFn5-146" style="edgeStyle=orthogonalEdgeStyle;rounded=0;orthogonalLoop=1;jettySize=auto;html=1;entryX=0;entryY=0.5;entryDx=0;entryDy=0;fontFamily=Helvetica;fontSize=12;fontColor=default;" parent="WIyWlLk6GJQsqaUBKTNV-1" source="4f0hrx8F149E0mvcmFn5-68" target="4f0hrx8F149E0mvcmFn5-86" edge="1">
          <mxGeometry relative="1" as="geometry" />
        </mxCell>
        <mxCell id="4f0hrx8F149E0mvcmFn5-68" value="&lt;font style=&quot;font-size: 24px;&quot;&gt;Client&lt;/font&gt;" style="swimlane;whiteSpace=wrap;html=1;startSize=75;shadow=1;" parent="WIyWlLk6GJQsqaUBKTNV-1" vertex="1">
          <mxGeometry x="-410" y="-1279.75" width="220" height="520" as="geometry" />
        </mxCell>
        <mxCell id="4f0hrx8F149E0mvcmFn5-21" value="" style="html=1;overflow=block;blockSpacing=1;whiteSpace=wrap;shape=image;fontSize=13;spacing=0;strokeColor=none;strokeOpacity=100;rounded=1;absoluteArcSize=1;arcSize=12;strokeWidth=0;image=https://images.lucid.app/images/9f9ac62b-9db0-4fa5-88e2-71a60301c5aa/content;imageAspect=0;lucidId=cKNf7pIu~v.I;shadow=0;" parent="4f0hrx8F149E0mvcmFn5-68" vertex="1">
          <mxGeometry x="63" y="350" width="99" height="99" as="geometry" />
        </mxCell>
        <mxCell id="4f0hrx8F149E0mvcmFn5-20" value="" style="html=1;overflow=block;blockSpacing=1;whiteSpace=wrap;shape=image;fontSize=13;spacing=0;strokeColor=none;strokeOpacity=100;rounded=1;absoluteArcSize=1;arcSize=12;strokeWidth=0;image=https://images.lucid.app/images/1bd68d9a-43fb-4812-8475-e86299c7d81a/content;imageAspect=0;lucidId=iJNff7ZiI3eY;shadow=0;" parent="4f0hrx8F149E0mvcmFn5-68" vertex="1">
          <mxGeometry x="50" y="150" width="120" height="120" as="geometry" />
        </mxCell>
        <mxCell id="4f0hrx8F149E0mvcmFn5-155" value="&lt;span style=&quot;font-size: 24px;&quot;&gt;&lt;b&gt;MICROSERVICE SERVER&lt;/b&gt;&lt;/span&gt;" style="text;html=1;align=center;verticalAlign=middle;whiteSpace=wrap;rounded=0;fontFamily=Helvetica;fontSize=12;fontColor=default;" parent="WIyWlLk6GJQsqaUBKTNV-1" vertex="1">
          <mxGeometry x="-490" y="-1825" width="540" height="30" as="geometry" />
        </mxCell>
        <mxCell id="4f0hrx8F149E0mvcmFn5-170" value="" style="endArrow=classic;html=1;rounded=0;fontFamily=Helvetica;fontSize=12;fontColor=default;exitX=1;exitY=0.5;exitDx=0;exitDy=0;fillColor=#dae8fc;strokeColor=#6c8ebf;" parent="WIyWlLk6GJQsqaUBKTNV-1" source="4f0hrx8F149E0mvcmFn5-166" edge="1">
          <mxGeometry width="50" height="50" relative="1" as="geometry">
            <mxPoint x="880" y="-1100" as="sourcePoint" />
            <mxPoint x="1680" y="-1245" as="targetPoint" />
          </mxGeometry>
        </mxCell>
        <mxCell id="Ze3hFqJc916vnHmV0CuT-2" value="&lt;div&gt;&lt;font style=&quot;font-size: 24px;&quot;&gt;SQL SERVER&lt;/font&gt;&lt;/div&gt;&lt;div&gt;&lt;font style=&quot;font-size: 24px;&quot;&gt;&lt;br&gt;&lt;/font&gt;&lt;/div&gt;&lt;div&gt;&lt;font style=&quot;font-size: 24px;&quot;&gt;&lt;br&gt;&lt;/font&gt;&lt;/div&gt;&lt;div&gt;&lt;span style=&quot;font-size: 20px;&quot;&gt;&lt;br&gt;&lt;/span&gt;&lt;/div&gt;" style="rounded=1;whiteSpace=wrap;html=1;shadow=1;dashed=1;dashPattern=12 12;" vertex="1" parent="WIyWlLk6GJQsqaUBKTNV-1">
          <mxGeometry x="920" y="-1470" width="250" height="146" as="geometry" />
        </mxCell>
        <mxCell id="Ze3hFqJc916vnHmV0CuT-3" value="" style="html=1;overflow=block;blockSpacing=1;whiteSpace=wrap;shape=image;fontSize=13;spacing=0;strokeColor=none;strokeOpacity=100;rounded=1;absoluteArcSize=1;arcSize=12;strokeWidth=0;image=https://images.lucid.app/images/913cbac1-fbca-441e-8293-56ef1d8492e2/content;imageAspect=0;lucidId=xNNfi3xZABGv;shadow=0;" vertex="1" parent="WIyWlLk6GJQsqaUBKTNV-1">
          <mxGeometry x="965.5" y="-1416" width="159" height="92" as="geometry" />
        </mxCell>
        <mxCell id="Ze3hFqJc916vnHmV0CuT-4" value="&lt;div&gt;&lt;font style=&quot;font-size: 24px;&quot;&gt;SQL SERVER&lt;/font&gt;&lt;/div&gt;&lt;div&gt;&lt;font style=&quot;font-size: 24px;&quot;&gt;&lt;br&gt;&lt;/font&gt;&lt;/div&gt;&lt;div&gt;&lt;font style=&quot;font-size: 24px;&quot;&gt;&lt;br&gt;&lt;/font&gt;&lt;/div&gt;&lt;div&gt;&lt;span style=&quot;font-size: 20px;&quot;&gt;&lt;br&gt;&lt;/span&gt;&lt;/div&gt;" style="rounded=1;whiteSpace=wrap;html=1;shadow=1;dashed=1;dashPattern=12 12;" vertex="1" parent="WIyWlLk6GJQsqaUBKTNV-1">
          <mxGeometry x="920" y="-1240" width="250" height="146" as="geometry" />
        </mxCell>
        <mxCell id="Ze3hFqJc916vnHmV0CuT-5" value="" style="html=1;overflow=block;blockSpacing=1;whiteSpace=wrap;shape=image;fontSize=13;spacing=0;strokeColor=none;strokeOpacity=100;rounded=1;absoluteArcSize=1;arcSize=12;strokeWidth=0;image=https://images.lucid.app/images/913cbac1-fbca-441e-8293-56ef1d8492e2/content;imageAspect=0;lucidId=xNNfi3xZABGv;shadow=0;" vertex="1" parent="WIyWlLk6GJQsqaUBKTNV-1">
          <mxGeometry x="965.5" y="-1186" width="159" height="92" as="geometry" />
        </mxCell>
        <mxCell id="Ze3hFqJc916vnHmV0CuT-6" value="&lt;div&gt;&lt;font style=&quot;font-size: 24px;&quot;&gt;SQL SERVER&lt;/font&gt;&lt;/div&gt;&lt;div&gt;&lt;font style=&quot;font-size: 24px;&quot;&gt;&lt;br&gt;&lt;/font&gt;&lt;/div&gt;&lt;div&gt;&lt;font style=&quot;font-size: 24px;&quot;&gt;&lt;br&gt;&lt;/font&gt;&lt;/div&gt;&lt;div&gt;&lt;span style=&quot;font-size: 20px;&quot;&gt;&lt;br&gt;&lt;/span&gt;&lt;/div&gt;" style="rounded=1;whiteSpace=wrap;html=1;shadow=1;dashed=1;dashPattern=12 12;" vertex="1" parent="WIyWlLk6GJQsqaUBKTNV-1">
          <mxGeometry x="920" y="-1000" width="250" height="146" as="geometry" />
        </mxCell>
        <mxCell id="Ze3hFqJc916vnHmV0CuT-7" value="" style="html=1;overflow=block;blockSpacing=1;whiteSpace=wrap;shape=image;fontSize=13;spacing=0;strokeColor=none;strokeOpacity=100;rounded=1;absoluteArcSize=1;arcSize=12;strokeWidth=0;image=https://images.lucid.app/images/913cbac1-fbca-441e-8293-56ef1d8492e2/content;imageAspect=0;lucidId=xNNfi3xZABGv;shadow=0;" vertex="1" parent="WIyWlLk6GJQsqaUBKTNV-1">
          <mxGeometry x="965.5" y="-946" width="159" height="92" as="geometry" />
        </mxCell>
        <mxCell id="Ze3hFqJc916vnHmV0CuT-17" value="&lt;div&gt;&lt;div style=&quot;font-size: 20px;&quot;&gt;Github&lt;/div&gt;&lt;span style=&quot;font-size: 20px;&quot;&gt;Tag management&lt;/span&gt;&lt;br&gt;&lt;/div&gt;" style="rounded=1;whiteSpace=wrap;html=1;shadow=1;dashed=1;dashPattern=12 12;fillColor=#dae8fc;strokeColor=#6c8ebf;" vertex="1" parent="WIyWlLk6GJQsqaUBKTNV-1">
          <mxGeometry x="2068" y="-1740" width="220" height="120" as="geometry" />
        </mxCell>
      </root>
    </mxGraphModel>
  </diagram>
</mxfile>
